<svg width="73" height="13" viewBox="0 0 73 13" fill="none" xmlns="http://www.w3.org/2000/svg">
<path d="M10.8912 8.08682C10.714 8.25855 10.6325 8.5069 10.6729 8.75046L11.2811 12.1166C11.3324 12.4019 11.212 12.6906 10.9733 12.8555C10.7393 13.0265 10.428 13.047 10.1728 12.9102L7.14261 11.3298C7.03725 11.2737 6.92026 11.2436 6.80053 11.2401H6.61512C6.55081 11.2497 6.48786 11.2702 6.43039 11.3017L3.39953 12.8897C3.2497 12.9649 3.08003 12.9916 2.91378 12.9649C2.50875 12.8883 2.2385 12.5024 2.30487 12.0953L2.91378 8.72925C2.95414 8.48364 2.87273 8.23392 2.69553 8.05946L0.225005 5.66488C0.0183874 5.46442 -0.0534499 5.16338 0.040965 4.89178C0.132643 4.62085 0.366628 4.42313 0.649188 4.37866L4.04949 3.88538C4.30811 3.85869 4.53525 3.70134 4.65156 3.46872L6.14989 0.396816C6.18546 0.3284 6.2313 0.265456 6.28672 0.212091L6.34829 0.1642C6.38045 0.128623 6.41739 0.0992041 6.45844 0.0752583L6.53302 0.0478917L6.64933 0H6.93736C7.19461 0.0266825 7.42106 0.18062 7.53943 0.410499L9.05759 3.46872C9.16706 3.69244 9.37983 3.84775 9.62545 3.88538L13.0258 4.37866C13.3131 4.41971 13.5532 4.61812 13.6483 4.89178C13.738 5.16612 13.6607 5.46715 13.4499 5.66488L10.8912 8.08682Z" fill="#FF9900"/>
<path d="M25.5762 8.08682C25.399 8.25855 25.3176 8.5069 25.358 8.75046L25.9662 12.1166C26.0175 12.4019 25.8971 12.6906 25.6583 12.8555C25.4243 13.0265 25.113 13.047 24.8578 12.9102L21.8277 11.3298C21.7223 11.2737 21.6053 11.2436 21.4856 11.2401H21.3002C21.2359 11.2497 21.1729 11.2702 21.1155 11.3017L18.0846 12.8897C17.9348 12.9649 17.7651 12.9916 17.5988 12.9649C17.1938 12.8883 16.9236 12.5024 16.9899 12.0953L17.5988 8.72925C17.6392 8.48364 17.5578 8.23392 17.3806 8.05946L14.9101 5.66488C14.7034 5.46442 14.6316 5.16338 14.726 4.89178C14.8177 4.62085 15.0517 4.42313 15.3342 4.37866L18.7345 3.88538C18.9932 3.85869 19.2203 3.70134 19.3366 3.46872L20.8349 0.396816C20.8705 0.3284 20.9164 0.265456 20.9718 0.212091L21.0334 0.1642C21.0655 0.128623 21.1025 0.0992041 21.1435 0.0752583L21.2181 0.0478917L21.3344 0H21.6224C21.8797 0.0266825 22.1061 0.18062 22.2245 0.410499L23.7426 3.46872C23.8521 3.69244 24.0649 3.84775 24.3105 3.88538L27.7108 4.37866C27.9982 4.41971 28.2383 4.61812 28.3334 4.89178C28.423 5.16612 28.3457 5.46715 28.135 5.66488L25.5762 8.08682Z" fill="#FF9900"/>
<path d="M40.2613 8.08682C40.0841 8.25855 40.0027 8.5069 40.043 8.75046L40.6512 12.1166C40.7026 12.4019 40.5821 12.6906 40.3434 12.8555C40.1094 13.0265 39.7981 13.047 39.5429 12.9102L36.5127 11.3298C36.4074 11.2737 36.2904 11.2436 36.1706 11.2401H35.9852C35.9209 11.2497 35.858 11.2702 35.8005 11.3017L32.7697 12.8897C32.6198 12.9649 32.4501 12.9916 32.2839 12.9649C31.8789 12.8883 31.6086 12.5024 31.675 12.0953L32.2839 8.72925C32.3243 8.48364 32.2428 8.23392 32.0656 8.05946L29.5951 5.66488C29.3885 5.46442 29.3167 5.16338 29.4111 4.89178C29.5028 4.62085 29.7367 4.42313 30.0193 4.37866L33.4196 3.88538C33.6782 3.85869 33.9054 3.70134 34.0217 3.46872L35.52 0.396816C35.5556 0.3284 35.6014 0.265456 35.6568 0.212091L35.7184 0.1642C35.7506 0.128623 35.7875 0.0992041 35.8286 0.0752583L35.9031 0.0478917L36.0194 0H36.3075C36.5647 0.0266825 36.7912 0.18062 36.9095 0.410499L38.4277 3.46872C38.5372 3.69244 38.7499 3.84775 38.9956 3.88538L42.3959 4.37866C42.6832 4.41971 42.9234 4.61812 43.0185 4.89178C43.1081 5.16612 43.0308 5.46715 42.82 5.66488L40.2613 8.08682Z" fill="#FF9900"/>
<path d="M54.9463 8.08682C54.7691 8.25855 54.6877 8.5069 54.7281 8.75046L55.3363 12.1166C55.3876 12.4019 55.2672 12.6906 55.0284 12.8555C54.7944 13.0265 54.4831 13.047 54.228 12.9102L51.1978 11.3298C51.0924 11.2737 50.9754 11.2436 50.8557 11.2401H50.6703C50.606 11.2497 50.543 11.2702 50.4856 11.3017L47.4547 12.8897C47.3049 12.9649 47.1352 12.9916 46.969 12.9649C46.5639 12.8883 46.2937 12.5024 46.36 12.0953L46.969 8.72925C47.0093 8.48364 46.9279 8.23392 46.7507 8.05946L44.2802 5.66488C44.0736 5.46442 44.0017 5.16338 44.0961 4.89178C44.1878 4.62085 44.4218 4.42313 44.7044 4.37866L48.1047 3.88538C48.3633 3.85869 48.5904 3.70134 48.7067 3.46872L50.2051 0.396816C50.2406 0.3284 50.2865 0.265456 50.3419 0.212091L50.4035 0.1642C50.4356 0.128623 50.4726 0.0992041 50.5136 0.0752583L50.5882 0.0478917L50.7045 0H50.9925C51.2498 0.0266825 51.4762 0.18062 51.5946 0.410499L53.1128 3.46872C53.2222 3.69244 53.435 3.84775 53.6806 3.88538L57.0809 4.37866C57.3683 4.41971 57.6084 4.61812 57.7035 4.89178C57.7931 5.16612 57.7158 5.46715 57.5051 5.66488L54.9463 8.08682Z" fill="#FF9900"/>
<path d="M69.6314 8.08682C69.4542 8.25855 69.3728 8.5069 69.4131 8.75046L70.0214 12.1166C70.0727 12.4019 69.9523 12.6906 69.7135 12.8555C69.4795 13.0265 69.1682 13.047 68.913 12.9102L65.8828 11.3298C65.7775 11.2737 65.6605 11.2436 65.5408 11.2401H65.3554C65.291 11.2497 65.2281 11.2702 65.1706 11.3017L62.1398 12.8897C61.9899 12.9649 61.8203 12.9916 61.654 12.9649C61.249 12.8883 60.9787 12.5024 61.0451 12.0953L61.654 8.72925C61.6944 8.48364 61.613 8.23392 61.4358 8.05946L58.9652 5.66488C58.7586 5.46442 58.6868 5.16338 58.7812 4.89178C58.8729 4.62085 59.1069 4.42313 59.3894 4.37866L62.7897 3.88538C63.0483 3.85869 63.2755 3.70134 63.3918 3.46872L64.8901 0.396816C64.9257 0.3284 64.9715 0.265456 65.027 0.212091L65.0885 0.1642C65.1207 0.128623 65.1576 0.0992041 65.1987 0.0752583L65.2733 0.0478917L65.3896 0H65.6776C65.9348 0.0266825 66.1613 0.18062 66.2797 0.410499L67.7978 3.46872C67.9073 3.69244 68.1201 3.84775 68.3657 3.88538L71.766 4.37866C72.0533 4.41971 72.2935 4.61812 72.3886 4.89178C72.4782 5.16612 72.4009 5.46715 72.1902 5.66488L69.6314 8.08682Z" fill="#FF9900"/>
</svg>
